<svg id="Capa_1" enable-background="new 0 0 512 512" height="512" viewBox="0 0 512 512" width="512" xmlns="http://www.w3.org/2000/svg"><g><path fill="#fff" d="m452 256c0-9.461-.686-18.947-2.043-28.313l60.896-42.267-66.301-114.84-67.063 31.61c-14.953-11.844-31.38-21.344-49.033-28.358l-6.154-73.832h-132.604l-6.153 73.832c-17.654 7.015-34.081 16.515-49.033 28.358l-67.064-31.61-66.301 114.84 60.896 42.267c-1.358 9.366-2.043 18.851-2.043 28.313s.686 18.947 2.043 28.313l-60.896 42.267 66.302 114.84 67.063-31.609c16.364 12.966 34.458 23.087 53.989 30.232v71.957h135v-71.957c19.53-7.145 37.624-17.267 53.989-30.233l67.063 31.609 66.302-114.84-60.896-42.267c1.355-9.365 2.041-18.851 2.041-28.312zm-158.5 99.628v126.372h-75v-126.372l-8.483-4.092c-36.46-17.585-60.017-55.085-60.017-95.536 0-38.752 20.824-73.586 53.5-92.142v69.351l52.5 42 52.5-42v-69.351c32.676 18.556 53.5 53.39 53.5 92.142 0 40.451-23.558 77.952-60.017 95.536zm177.57-20.142-38.698 67.027-59.631-28.106-7.392 6.478c-12.678 11.111-26.699 20.078-41.85 26.813v-33.607c19.024-10.887 35.178-26.228 47.079-44.8 14.015-21.867 21.422-47.211 21.422-73.291 0-59.072-37.718-111.046-93.854-129.33l-19.646-6.398v98.52l-22.5 18-22.5-18v-98.52l-19.646 6.398c-56.137 18.284-93.854 70.258-93.854 129.33 0 26.08 7.407 51.424 21.421 73.291 11.902 18.572 28.055 33.913 47.079 44.8v33.607c-15.151-6.735-29.172-15.702-41.85-26.813l-7.391-6.478-59.631 28.106-38.698-67.027 54.118-37.562-1.898-9.629c-2.091-10.599-3.15-21.464-3.15-32.295s1.06-21.696 3.149-32.296l1.898-9.629-54.118-37.562 38.698-67.027 59.631 28.106 7.391-6.478c16.474-14.438 35.274-25.31 55.879-32.316l9.303-3.163 5.471-65.635h77.396l5.47 65.636 9.303 3.163c20.605 7.007 39.406 17.879 55.879 32.316l7.392 6.478 59.631-28.106 38.698 67.027-54.116 37.562 1.897 9.628c2.088 10.6 3.148 21.466 3.148 32.296s-1.06 21.696-3.148 32.297l-1.897 9.628z"/></g></svg>